<svg width="141" height="42" viewBox="0 0 141 42" fill="none" xmlns="http://www.w3.org/2000/svg">
<g clip-path="url(#clip0)">
<path d="M57.3918 32.9285C55.184 32.9285 53.2727 32.414 51.6876 31.3717C50.0766 30.3321 48.7962 28.8493 47.9985 27.0995C47.1375 25.2802 46.707 23.206 46.707 20.8768C46.707 18.4909 47.1519 16.4137 48.0415 14.5929C48.9312 12.7722 50.1619 11.3481 51.7618 10.3207C53.3617 9.29329 55.2136 8.77884 57.3473 8.77884C58.8868 8.75773 60.4129 9.06946 61.8223 9.69293C63.1043 10.2599 64.2277 11.1356 65.0932 12.2428C65.9455 13.359 66.492 14.6804 66.6783 16.0752H63.0663C62.7846 15.003 62.1767 14.0636 61.2292 13.2419C60.2817 12.4203 59.005 12.0087 57.4214 12.0087C56.1046 11.9819 54.8112 12.3607 53.7146 13.0943C52.6618 13.8146 51.8329 14.842 51.2398 16.1483C50.6467 17.4545 50.3502 18.9964 50.3502 20.7575C50.3502 22.5633 50.6467 24.135 51.225 25.4711C51.8033 26.8072 52.6173 27.8481 53.6849 28.5832C54.7848 29.3343 56.0892 29.724 57.4185 29.6986C58.2967 29.7113 59.1685 29.5465 59.9822 29.214C60.7419 28.9047 61.4183 28.4193 61.9563 27.7974C62.4943 27.1755 62.8787 26.4347 63.0782 25.6351H66.6931C66.4988 26.9789 65.98 28.2542 65.1822 29.3497C64.353 30.4679 63.2641 31.3649 62.0106 31.9622C60.645 32.6049 59.1251 32.9285 57.3918 32.9285Z" fill="#000087"/>
<path d="M86.8024 22.8866V9.07227H90.4174V32.4286H86.8024V28.4815H86.5504C85.972 29.7012 85.0823 30.7447 83.9718 31.5056C82.8019 32.3272 81.3355 32.7388 79.5577 32.7388C78.1874 32.7641 76.8342 32.4301 75.6313 31.7695C74.4578 31.0943 73.5169 30.0752 72.9342 28.8483C72.2818 27.542 71.956 25.8977 71.957 23.9155V9.07227H75.572V23.6784C75.572 25.3813 76.0598 26.7472 77.0236 27.7597C77.9874 28.7722 79.2315 29.2867 80.7305 29.2867C81.6872 29.27 82.6274 29.0339 83.4796 28.5963C84.4382 28.1161 85.2559 27.393 85.852 26.4982C86.5059 25.5587 86.8024 24.3539 86.8024 22.8866Z" fill="#000087"/>
<path d="M96.2104 32.4436V3.62509L99.8521 1.49121L99.8254 12.7929H99.8462C100.113 12.3768 100.62 11.1839 103.307 9.52718C104.197 9.03012 105.411 8.78159 106.952 8.78159C108.937 8.78159 110.685 9.27965 112.198 10.2489C113.71 11.2182 114.893 12.6348 115.738 14.4332C116.584 16.2315 117.012 18.3669 117.012 20.8184C117.012 23.2997 116.582 25.4291 115.738 27.2499C114.895 29.0706 113.708 30.4648 112.211 31.4475C110.713 32.4302 108.967 32.9313 107.011 32.9313C105.499 32.9313 104.285 32.6827 103.366 32.1857C102.463 31.6876 101.752 31.115 101.262 30.4693C100.773 29.8236 100.387 29.2943 100.12 28.8693H99.692V32.4481L96.2104 32.4436ZM99.7691 20.7573C99.7691 22.5198 100.036 24.0751 100.553 25.4261C101.071 26.7772 101.843 27.8195 102.835 28.5681C103.827 29.3166 105.073 29.6984 106.525 29.6984C108.037 29.6984 109.311 29.3017 110.317 28.5054C111.375 27.6722 112.172 26.5511 112.614 25.2755C113.147 23.8294 113.409 22.2964 113.385 20.7543C113.407 19.2374 113.151 17.7295 112.629 16.3061C112.179 15.0628 111.387 13.974 110.344 13.1672C109.322 12.3888 108.047 12.0085 106.522 12.0085C105.055 12.0085 103.811 12.3753 102.803 13.109C101.795 13.8427 101.04 14.8701 100.531 16.1778C100.023 17.4856 99.7661 19.0111 99.7661 20.7573H99.7691Z" fill="#000087"/>
<path d="M131.224 32.9281C128.958 32.9281 127.002 32.4311 125.357 31.4369C123.713 30.4383 122.395 28.979 121.564 27.2378C120.674 25.432 120.229 23.3473 120.229 20.954C120.229 18.5606 120.674 16.4476 121.564 14.6269C122.454 12.8061 123.683 11.3686 125.283 10.3412C126.883 9.3138 128.733 8.79785 130.867 8.79785C132.106 8.80007 133.336 9.00144 134.511 9.39432C135.728 9.81304 136.843 10.4836 137.785 11.3627C138.762 12.2723 139.548 13.4623 140.127 14.9594C140.705 16.4566 141 18.2922 141 20.4648V21.9918H122.807V18.8931H137.303C137.323 17.6727 137.055 16.4649 136.519 15.3695C136.009 14.363 135.235 13.5154 134.282 12.918C133.318 12.3215 132.178 12.0233 130.858 12.0233C129.421 12.0233 128.176 12.3757 127.124 13.0805C126.088 13.7627 125.251 14.7103 124.7 15.8258C124.137 16.95 123.848 18.1923 123.855 19.4508V21.5206C123.855 23.2832 124.166 24.7803 124.787 25.9941C125.361 27.1599 126.263 28.1302 127.381 28.7841C128.491 29.4149 129.767 29.7385 131.236 29.7385C132.116 29.7485 132.992 29.6145 133.829 29.3418C134.577 29.089 135.26 28.6729 135.83 28.1235C136.407 27.5524 136.852 26.8606 137.134 26.097L140.629 27.0663C140.261 28.2302 139.627 29.291 138.777 30.1635C137.86 31.0769 136.759 31.7826 135.548 32.2332C134.154 32.7007 132.693 32.9354 131.224 32.9281Z" fill="#000087"/>
<path d="M12.307 2.22782L16.2007 0L16.1859 20.0832L12.2803 22.311L12.307 2.22782Z" fill="#000087"/>
<path d="M35.0021 29.4344L18.4619 20.0683V0L35.0021 9.49882V29.4344Z" fill="#000087"/>
<path d="M33.8633 31.3686L17.4417 41.0076L1.16846 31.2806L17.3083 21.9727L33.8633 31.3686Z" fill="#000087"/>
<path d="M6.16979 9.6925L10.0828 7.44678L10.0531 23.6007L6.14014 25.8286L6.16979 9.6925Z" fill="#000087"/>
<path d="M0.0296552 17.8686L3.93524 15.6318L3.90559 27.1244L0 29.3462L0.0296552 17.8686Z" fill="#000087"/>
</g>
<defs>
<clipPath id="clip0">
<rect width="141" height="41" fill="white"/>
</clipPath>
</defs>
</svg>
